# xmcd
#
# Track frame offsets:
#	150
#	13340
#	25925
#	37787
#	46930
#	59905
#	73380
#	83862
#	95952
#	108075
#	117507
#	127462
#
# Disc length: 1814 seconds
#
# Revision: 0
# Processed by: cddbd v1.4PL0 Copyright (c) Steve Scherf et al.
# Submitted via: EasyCDDAExtractor 5.0.4.1
#
DISCID=b507140c
DTITLE=Bluegrass Cardinals
DYEAR=1900
DGENRE=Bluegrass
TTITLE0=Bird Dog
TTITLE1=Girl At The Crossroads Bar
TTITLE2=I Couldn't Believe It Was True
TTITLE3=Baby Rocked Her Dolly
TTITLE4=Prisoner's Song
TTITLE5=Where No One Stands Alone
TTITLE6=Are You Missing Me
TTITLE7=Leaving Harlan
TTITLE8=There Is A Fountain
TTITLE9=My Aching Heart
TTITLE10=Never Ending Sea Of love
TTITLE11=Rolling On
EXTD=
EXTT0=
EXTT1=
EXTT2=
EXTT3=
EXTT4=
EXTT5=
EXTT6=
EXTT7=
EXTT8=
EXTT9=
EXTT10=
EXTT11=
PLAYORDER=
